<svg width="220" height="220" xmlns="http://www.w3.org/2000/svg">

 <title/>
 <g label="Layer 1" id="imagebot_3">
  <g transform="translate(21.76 29.44) matrix(0.583839 0 0 0.583839 -22.749 -574.368)" label="Layer 1" fill="#2a7fff" id="imagebot_11">
   <path fill="#cbe1f7" id="imagebot_17" d="M24.73138,951.02608C31.92489,948.72667 41.08366,954.81232 41.85908,959.70678C43.09065,967.48038 40.50126,967.15072 41.32753,977.68056C42.15438,988.21796 51.83489,997.10836 39.34487,1001.7527C26.95612,1006.3595 25.48896,994.59288 22.77415,983.6183C19.6876,971.14097 6.48983,956.85701 24.73138,951.02608z"/>
   <path fill="#cbe1f7" id="imagebot_16" d="M-1466.7415,-392.15594C-1466.7415,-319.63001 -1515.5857,-260.83612 -1575.838,-260.83612C-1636.0903,-260.83612 -1684.9345,-319.63001 -1684.9345,-392.15594C-1684.9345,-464.68188 -1636.0903,-523.47577 -1575.838,-523.47577C-1515.5857,-523.47577 -1466.7415,-464.68188 -1466.7415,-392.15594z" transform="matrix(0.04295962,-0.00273332,-5.5322084e-4,0.03993272,107.59312,958.83703)"/>
   <path fill="#cbe1f7" id="imagebot_15" d="M-1466.7415,-392.15594C-1466.7415,-319.63001 -1515.5857,-260.83612 -1575.838,-260.83612C-1636.0903,-260.83612 -1684.9345,-319.63001 -1684.9345,-392.15594C-1684.9345,-464.68188 -1636.0903,-523.47577 -1575.838,-523.47577C-1515.5857,-523.47577 -1466.7415,-464.68188 -1466.7415,-392.15594z" transform="matrix(0.0277998,-0.00321132,-0.00122483,0.03083168,74.053329,952.45636)"/>
   <path fill="#cbe1f7" id="imagebot_14" d="M-1466.7415,-392.15594C-1466.7415,-319.63001 -1515.5857,-260.83612 -1575.838,-260.83612C-1636.0903,-260.83612 -1684.9345,-319.63001 -1684.9345,-392.15594C-1684.9345,-464.68188 -1636.0903,-523.47577 -1575.838,-523.47577C-1515.5857,-523.47577 -1466.7415,-464.68188 -1466.7415,-392.15594z" transform="matrix(0.02364505,-0.00581374,0.00299085,0.02682488,61.415495,948.22142)"/>
   <path fill="#cbe1f7" id="imagebot_13" d="M-1466.7415,-392.15594C-1466.7415,-319.63001 -1515.5857,-260.83612 -1575.838,-260.83612C-1636.0903,-260.83612 -1684.9345,-319.63001 -1684.9345,-392.15594C-1684.9345,-464.68188 -1636.0903,-523.47577 -1575.838,-523.47577C-1515.5857,-523.47577 -1466.7415,-464.68188 -1466.7415,-392.15594z" transform="matrix(0.02100575,-0.00790203,0.00623822,0.0243645,52.441068,947.02342)"/>
   <path fill="#cbe1f7" id="imagebot_12" d="M-1466.7415,-392.15594C-1466.7415,-319.63001 -1515.5857,-260.83612 -1575.838,-260.83612C-1636.0903,-260.83612 -1684.9345,-319.63001 -1684.9345,-392.15594C-1684.9345,-464.68188 -1636.0903,-523.47577 -1575.838,-523.47577C-1515.5857,-523.47577 -1466.7415,-464.68188 -1466.7415,-392.15594z" transform="matrix(0.01528753,-0.0069296,0.0060823,0.01796276,39.405901,951.22134)"/>
  </g>
  <g label="Layer 1" fill="#2a7fff" transform="translate(-5.76 -3.2) matrix(-0.566498 0 0 0.566498 121.972 -505.744)" id="imagebot_4">
   <path fill="#ebc1f7" id="imagebot_10" d="M96.04168,951.8621C103.2352,949.56269 112.39396,955.64834 113.16938,960.5428C114.40095,968.3164 111.81156,967.98674 112.63783,978.51658C113.46468,989.05398 123.14519,997.94438 110.65517,1002.5887C98.26642,1007.1955 96.79926,995.4289 94.08445,984.45432C90.9979,971.97699 77.80013,957.69303 96.04168,951.8621z"/>
   <path fill="#ebc1f7" id="imagebot_9" d="M-1466.7415,-392.15594C-1466.7415,-319.63001 -1515.5857,-260.83612 -1575.838,-260.83612C-1636.0903,-260.83612 -1684.9345,-319.63001 -1684.9345,-392.15594C-1684.9345,-464.68188 -1636.0903,-523.47577 -1575.838,-523.47577C-1515.5857,-523.47577 -1466.7415,-464.68188 -1466.7415,-392.15594z" transform="matrix(0.04295962,-0.00273332,-5.5322084e-4,0.03993272,178.90342,959.67305)"/>
   <path fill="#ebc1f7" id="imagebot_8" d="M-1466.7415,-392.15594C-1466.7415,-319.63001 -1515.5857,-260.83612 -1575.838,-260.83612C-1636.0903,-260.83612 -1684.9345,-319.63001 -1684.9345,-392.15594C-1684.9345,-464.68188 -1636.0903,-523.47577 -1575.838,-523.47577C-1515.5857,-523.47577 -1466.7415,-464.68188 -1466.7415,-392.15594z" transform="matrix(0.0277998,-0.00321132,-0.00122483,0.03083168,145.36363,953.29238)"/>
   <path fill="#ebc1f7" id="imagebot_7" d="M-1466.7415,-392.15594C-1466.7415,-319.63001 -1515.5857,-260.83612 -1575.838,-260.83612C-1636.0903,-260.83612 -1684.9345,-319.63001 -1684.9345,-392.15594C-1684.9345,-464.68188 -1636.0903,-523.47577 -1575.838,-523.47577C-1515.5857,-523.47577 -1466.7415,-464.68188 -1466.7415,-392.15594z" transform="matrix(0.02364505,-0.00581374,0.00299085,0.02682488,132.7258,949.05744)"/>
   <path fill="#ebc1f7" id="imagebot_6" d="M-1466.7415,-392.15594C-1466.7415,-319.63001 -1515.5857,-260.83612 -1575.838,-260.83612C-1636.0903,-260.83612 -1684.9345,-319.63001 -1684.9345,-392.15594C-1684.9345,-464.68188 -1636.0903,-523.47577 -1575.838,-523.47577C-1515.5857,-523.47577 -1466.7415,-464.68188 -1466.7415,-392.15594z" transform="matrix(0.02100575,-0.00790203,0.00623822,0.0243645,123.75137,947.85944)"/>
   <path fill="#ebc1f7" id="imagebot_5" d="M-1466.7415,-392.15594C-1466.7415,-319.63001 -1515.5857,-260.83612 -1575.838,-260.83612C-1636.0903,-260.83612 -1684.9345,-319.63001 -1684.9345,-392.15594C-1684.9345,-464.68188 -1636.0903,-523.47577 -1575.838,-523.47577C-1515.5857,-523.47577 -1466.7415,-464.68188 -1466.7415,-392.15594z" transform="matrix(0.01528753,-0.0069296,0.0060823,0.01796276,110.7162,952.05736)"/>
  </g>
  <title>Layer 1</title>
  <rect stroke-opacity="0" transform="translate(200.32 -22.4) matrix(1.17708 0 0 1.17708 -27.2703 -27.5359)" id="imagebot_18" height="123.29679" width="123.98947" y="-1.6344" x="-6.58454" fill-opacity="0" stroke-linecap="round" stroke-linejoin="round" stroke-width="10" stroke="#000000" fill="#FF0000"/>
 </g>
 <metadata id="imagebot_2">image/svg+xmlOpenclipartgreen steps2011-08-12T08:36:03https://openclipart.org/detail/154855/green-steps-by-netalloynetalloyfoot printfootprintgreen footprint</metadata>
</svg>